<?xml version="1.0" encoding="UTF-8" standalone="no"?>
<svg width="148px" height="69px" viewBox="0 0 148 69" version="1.1" xmlns="http://www.w3.org/2000/svg" xmlns:xlink="http://www.w3.org/1999/xlink">
    <!-- Generator: Sketch 41.2 (35397) - http://www.bohemiancoding.com/sketch -->
    <title>logo-b</title>
    <desc>Created with Sketch.</desc>
    <defs></defs>
    <g id="Symbols" stroke="none" stroke-width="1" fill="none" fill-rule="evenodd" opacity="0.7">
        <g id="footer" transform="translate(-77.000000, -50.000000)" fill="#000000">
            <g id="logo-b">
                <g transform="translate(77.000000, 50.000000)">
                    <g opacity="0.9">
                        <path d="M120.479875,45.03075 L120.479875,45.03075 C120.479875,45.072 120.479875,45.09325 120.467375,45.1195 C120.479875,45.087 120.479875,45.072 120.479875,45.03075" id="Fill-2"></path>
                        <path d="M0.118625,20.43725 L29.737375,20.43725 C29.737375,20.43725 32.354875,20.1285 34.577375,22.516 C36.814875,24.89225 36.436125,26.9085 36.436125,26.9085 L36.436125,33.96975 L42.467375,22.7385 C42.467375,22.7385 43.281125,20.7285 46.258625,20.7285 C49.234875,20.7285 49.981125,22.89725 49.981125,22.89725 L55.193625,33.09225 L55.196125,20.94975 L54.146125,20.94975 L54.146125,19.61225 L63.226125,19.61225 C63.226125,19.61225 63.817375,12.7685 70.289875,6.59225 C76.761125,0.4135 85.042375,0.1185 87.374875,0.1185 C92.792375,0.1185 99.833625,2.41975 104.289875,6.73475 C108.748625,11.04975 110.618625,16.6235 110.997375,19.61225 L120.357375,19.61225 L120.357375,20.94975 L118.423625,20.94975 L118.423625,44.8235 C118.423625,44.8235 118.192375,46.3885 119.844875,46.3885 C121.482375,46.3885 121.482375,45.061 121.482375,44.60225 L121.482375,28.0885 C121.482375,28.0885 121.694875,22.3635 127.572375,21.18225 L140.598625,21.16725 C140.598625,21.16725 142.827375,20.94975 145.503625,23.481 C148.189875,26.0085 147.731125,28.0885 147.731125,28.0885 L147.731125,31.581 L140.227375,31.581 L140.227375,29.94975 C140.227375,29.94975 140.228625,29.16475 139.513625,29.16475 L130.182375,29.16475 C130.182375,29.16475 129.213625,29.11975 129.213625,29.956 L129.213625,45.636 C129.213625,45.636 129.007375,46.4235 129.992375,46.4235 L139.513625,46.4235 C139.513625,46.4235 140.227375,46.4635 140.227375,45.636 L140.227375,43.981 L147.598625,43.981 L147.598625,45.636 C147.598625,45.636 147.328625,53.13475 142.557375,53.981 L118.044875,53.981 C118.044875,53.981 111.281125,53.8985 110.987375,46.57225 L110.987375,20.94975 L109.174875,20.94975 L109.174875,19.6735 C109.174875,19.6735 108.199875,15.08975 103.116125,10.631 C98.052375,6.1635 92.633625,4.486 87.218625,4.486 C81.802375,4.486 76.499875,6.55225 73.759875,8.34725 C71.033625,10.1235 67.187375,13.48225 64.723625,19.66225 L64.723625,20.94975 L62.946125,20.94975 L62.946125,50.856 C62.946125,50.856 62.722375,53.42225 59.651125,53.416 C56.583625,53.416 55.913625,51.64225 55.571125,51.0235 L46.258625,32.221 L36.267375,50.63475 C36.267375,50.63475 35.254875,53.20475 32.488625,53.20475 C29.677375,53.20475 28.967375,50.57475 28.967375,50.24475 L28.967375,29.54725 C28.967375,29.54725 29.129875,28.0885 27.399875,28.0885 L19.527375,28.0885 L19.527375,53.13475 L11.504875,53.13475 L11.504875,28.0885 L0.118625,28.0885 L0.118625,20.43725 Z" id="Fill-4"></path>
                        <path d="M72.428125,45.90725 C72.438125,47.6235 71.034375,49.0135 69.315625,49.0135 C67.589375,49.0135 66.193125,47.6235 66.193125,45.90725 C66.193125,44.18475 67.589375,42.786 69.315625,42.786 C71.034375,42.786 72.428125,44.18475 72.428125,45.90725" id="Fill-6"></path>
                        <path d="M115.298,3.421875 C115.298,5.141875 113.91675,6.533125 112.193,6.533125 C110.46675,6.533125 109.07925,5.141875 109.07925,3.421875 C109.07925,1.701875 110.46675,0.301875 112.193,0.301875 C113.91675,0.301875 115.313,1.701875 115.298,3.421875" id="Fill-8"></path>
                        <path d="M112.20475,7.564875 C110.04975,7.564875 108.30475,5.917375 108.10725,3.819875 L87.27225,38.132375 L87.27225,23.124875 C87.27225,22.236125 86.15975,20.279875 83.251,20.279875 C80.35475,20.279875 79.01225,22.516125 79.01225,22.516125 L67.01475,42.473625 C67.67725,42.024875 68.4685,41.773625 69.316,41.773625 C71.496,41.773625 73.26475,43.458625 73.41475,45.593625 L79.9535,34.448625 L79.9535,49.912375 C79.9535,51.023625 81.07475,53.204875 84.25475,53.204875 C87.43975,53.204875 88.38725,50.574875 88.38725,50.574875 L114.116,7.078625 C113.546,7.386125 112.89725,7.564875 112.20475,7.564875" id="Fill-10"></path>
                        <polygon id="Fill-12" points="2.773625 68.73675 0.118625 61.24675 2.269875 61.24675 3.833625 66.1405 5.263625 61.24675 7.404875 61.24675 8.798625 66.1405 10.398625 61.24675 12.566125 61.24675 9.891125 68.73675 7.774875 68.73675 6.322375 63.92675 4.911125 68.73675"></polygon>
                        <polygon id="Fill-14" points="16.211125 68.73675 13.579875 61.24675 15.723625 61.24675 17.276125 66.1405 18.723625 61.24675 20.853625 61.24675 22.259875 66.1405 23.846125 61.24675 26.023625 61.24675 23.346125 68.73675 21.224875 68.73675 19.786125 63.92675 18.358625 68.73675"></polygon>
                        <polygon id="Fill-16" points="29.669375 68.73675 27.031875 61.24675 29.171875 61.24675 30.735625 66.1405 32.180625 61.24675 34.311875 61.24675 35.703125 66.1405 37.300625 61.24675 39.469375 61.24675 36.786875 68.73675 34.671875 68.73675 33.236875 63.92675 31.808125 68.73675"></polygon>
                        <polygon id="Fill-18" points="40.94125 68.73625 43.12875 68.73625 43.12875 66.765 40.94125 66.765"></polygon>
                        <path d="M50.198,61.246625 L50.198,62.814125 L48.70425,62.814125 L48.70425,65.864125 C48.70425,66.490375 48.71425,66.835375 48.7455,66.947875 C48.778,67.032875 48.8355,67.127875 48.93675,67.189125 C49.03675,67.246625 49.16675,67.280375 49.31175,67.280375 C49.50675,67.280375 49.8055,67.217875 50.19175,67.100375 L50.35425,68.626625 C49.84175,68.829125 49.27925,68.924125 48.628,68.924125 C48.2455,68.924125 47.88675,68.876625 47.568,68.752875 C47.2505,68.626625 47.03675,68.472875 46.873,68.270375 C46.7355,68.087875 46.62925,67.839125 46.578,67.510375 C46.533,67.269125 46.51425,66.801625 46.51425,66.106625 L46.51425,62.814125 L45.47925,62.814125 L45.47925,61.246625 L46.51425,61.246625 L46.51425,59.740375 L48.70425,58.556625 L48.70425,61.246625 L50.198,61.246625 Z" id="Fill-20"></path>
                        <polygon id="Fill-21" points="54.25925 68.73675 51.60925 61.24675 53.7655 61.24675 55.3255 66.1405 56.773 61.24675 58.9055 61.24675 60.30425 66.1405 61.883 61.24675 64.0605 61.24675 61.3905 68.73675 59.26675 68.73675 57.823 63.92675 56.40675 68.73675"></polygon>
                        <path d="M73.690375,68.73675 L71.495375,68.73675 L71.495375,64.893 C71.495375,64.0855 71.435375,63.54425 71.350375,63.3155 C71.252875,63.07425 71.094125,62.8905 70.886625,62.76425 C70.670375,62.623 70.422875,62.56675 70.125375,62.56675 C69.736625,62.56675 69.395375,62.66175 69.092875,62.848 C68.779125,63.0355 68.576625,63.283 68.459125,63.59425 C68.346625,63.903 68.295375,64.478 68.295375,65.333 L68.295375,68.73675 L66.095375,68.73675 L66.095375,61.24675 L68.144125,61.24675 L68.144125,62.33675 C68.872875,61.473 69.786625,61.03675 70.886625,61.03675 C71.365375,61.03675 71.820375,61.10925 72.224125,61.278 C72.626625,61.44175 72.919125,61.6355 73.126625,61.88425 C73.345375,62.12425 73.487875,62.40925 73.562875,62.71425 C73.649125,63.0355 73.690375,63.468 73.690375,64.0655 L73.690375,68.73675 Z" id="Fill-22"></path>
                        <path d="M76.86375,68.73625 L79.0625,68.73625 L79.0625,61.24625 L76.86375,61.24625 L76.86375,68.73625 Z M76.86375,60.2175 L79.0625,60.2175 L79.0625,58.39125 L76.86375,58.39125 L76.86375,60.2175 Z" id="Fill-23"></path>
                        <path d="M89.601,63.412125 L87.43225,63.754625 C87.356,63.367125 87.191,63.084625 86.9335,62.882125 C86.66975,62.694625 86.32975,62.578375 85.91225,62.578375 C85.351,62.578375 84.91225,62.763375 84.5785,63.108375 C84.25475,63.449625 84.091,64.042125 84.091,64.845875 C84.091,65.749625 84.25475,66.379625 84.58975,66.750875 C84.92225,67.128375 85.3685,67.314625 85.926,67.314625 C86.3535,67.314625 86.69725,67.203375 86.96725,66.988375 C87.23475,66.772125 87.426,66.384625 87.5235,65.864625 L89.70725,66.208375 C89.481,67.109625 89.04975,67.793375 88.41725,68.244625 C87.7785,68.703375 86.9185,68.923375 85.846,68.923375 C84.6135,68.923375 83.661,68.579625 82.926,67.897125 C82.201,67.189625 81.8385,66.237125 81.8385,65.009625 C81.8385,63.742125 82.201,62.778375 82.93225,62.088375 C83.661,61.383375 84.63725,61.037125 85.891,61.037125 C86.906,61.037125 87.716,61.247125 88.31975,61.617125 C88.9085,62.015875 89.34975,62.597125 89.601,63.412125" id="Fill-24"></path>
                        <polygon id="Fill-25" points="92.21 68.73625 94.40125 68.73625 94.40125 66.765 92.21 66.765"></polygon>
                        <path d="M105.200375,68.73675 L102.996625,68.73675 L102.996625,64.893 C102.996625,64.0855 102.945375,63.54425 102.859125,63.3155 C102.767875,63.07425 102.609125,62.8905 102.400375,62.76425 C102.187875,62.623 101.934125,62.56675 101.630375,62.56675 C101.247875,62.56675 100.902875,62.66175 100.594125,62.848 C100.285375,63.0355 100.092875,63.283 99.981625,63.59425 C99.852875,63.903 99.799125,64.478 99.799125,65.333 L99.799125,68.73675 L97.599125,68.73675 L97.599125,61.24675 L99.651625,61.24675 L99.651625,62.33675 C100.377875,61.473 101.294125,61.03675 102.400375,61.03675 C102.880375,61.03675 103.334125,61.10925 103.731625,61.278 C104.135375,61.44175 104.434125,61.6355 104.644125,61.88425 C104.851625,62.12425 105.000375,62.40925 105.077875,62.71425 C105.159125,63.0355 105.200375,63.468 105.200375,64.0655 L105.200375,68.73675 Z" id="Fill-26"></path>
                        <path d="M113.351,64.360625 C113.33475,63.764375 113.16475,63.326875 112.8485,63.020625 C112.5335,62.714375 112.14725,62.565625 111.7035,62.565625 C111.216,62.565625 110.82225,62.723125 110.506,63.035625 C110.19225,63.366875 110.031,63.814375 110.03475,64.360625 L113.351,64.360625 Z M113.221,66.384375 L115.43225,66.734375 C115.141,67.449375 114.696,67.998125 114.08475,68.368125 C113.4735,68.753125 112.711,68.923125 111.7985,68.923125 C110.34725,68.923125 109.271,68.505625 108.5785,67.646875 C108.0135,66.961875 107.7485,66.095625 107.7485,65.041875 C107.7485,63.798125 108.11725,62.814375 108.8385,62.108125 C109.55725,61.403125 110.466,61.036875 111.576,61.036875 C112.81225,61.036875 113.79725,61.413125 114.51975,62.150625 C115.23225,62.895625 115.57475,64.051875 115.54475,65.589375 L109.99725,65.589375 C110.01225,66.171875 110.196,66.639375 110.526,66.961875 C110.87725,67.293125 111.306,67.453125 111.8135,67.453125 C112.15725,67.453125 112.45225,67.371875 112.69475,67.203125 C112.9235,67.033125 113.10225,66.765625 113.221,66.384375 L113.221,66.384375 Z" id="Fill-27"></path>
                        <path d="M122.1425,61.246625 L122.1425,62.814125 L120.64375,62.814125 L120.64375,65.864125 C120.64375,66.490375 120.66,66.835375 120.68375,66.947875 C120.7075,67.032875 120.78375,67.127875 120.8825,67.189125 C120.97875,67.246625 121.0975,67.280375 121.25375,67.280375 C121.45625,67.280375 121.7425,67.217875 122.135,67.100375 L122.29625,68.626625 C121.79,68.829125 121.21125,68.924125 120.56625,68.924125 C120.18625,68.924125 119.81625,68.876625 119.505,68.752875 C119.1975,68.626625 118.965,68.472875 118.82,68.270375 C118.66125,68.087875 118.57375,67.839125 118.50375,67.510375 C118.46375,67.269125 118.44125,66.801625 118.44125,66.106625 L118.44125,62.814125 L117.415,62.814125 L117.415,61.246625 L118.44125,61.246625 L118.44125,59.740375 L120.64375,58.556625 L120.64375,61.246625 L122.1425,61.246625 Z" id="Fill-28"></path>
                        <polygon id="Fill-29" points="124.60125 68.73625 126.80125 68.73625 126.80125 66.765 124.60125 66.765"></polygon>
                        <path d="M133.878375,61.246625 L133.878375,62.814125 L132.373375,62.814125 L132.373375,65.864125 C132.373375,66.490375 132.385875,66.835375 132.418375,66.947875 C132.445875,67.032875 132.517125,67.127875 132.605875,67.189125 C132.719625,67.246625 132.833375,67.280375 132.983375,67.280375 C133.192125,67.280375 133.482125,67.217875 133.860875,67.100375 L134.022125,68.626625 C133.515875,68.829125 132.945875,68.924125 132.307125,68.924125 C131.913375,68.924125 131.560875,68.876625 131.245875,68.752875 C130.929625,68.626625 130.703375,68.472875 130.555875,68.270375 C130.399625,68.087875 130.300875,67.839125 130.247125,67.510375 C130.202125,67.269125 130.170875,66.801625 130.170875,66.106625 L130.170875,62.814125 L129.159625,62.814125 L129.159625,61.246625 L130.170875,61.246625 L130.170875,59.740375 L132.373375,58.556625 L132.373375,61.246625 L133.878375,61.246625 Z" id="Fill-30"></path>
                        <polygon id="Fill-31" points="137.9335 68.73675 135.28975 61.24675 137.43725 61.24675 138.99975 66.1405 140.44475 61.24675 142.57725 61.24675 143.96975 66.1405 145.5485 61.24675 147.731 61.24675 145.06475 68.73675 142.9435 68.73675 141.49725 63.92675 140.0835 68.73675"></polygon>
                    </g>
                </g>
            </g>
        </g>
    </g>
</svg>